# xmcd
#
# Track frame offsets:
#	150
#	47550
#	59500
#	75625
#	110750
#	138275
#	148625
#	166100
#
# Disc length: 2942 seconds
#
# Revision: 0
# Processed by: cddbd v1.5.1PL0 Copyright (c) Steve Scherf et al.
# Submitted via: dBpowerAMP V4.0
#
DISCID=690b7c08
DTITLE=民族大合奏 - 春江花月夜
DYEAR=1900
DGENRE=Country
TTITLE0=春江花月夜
TTITLE1=花好月圓
TTITLE2=紫竹調
TTITLE3=小霓裳
TTITLE4=彩雲追月
TTITLE5=金蛇狂舞
TTITLE6=翠湖春曉
TTITLE7=月兒高
EXTD=
EXTT0=
EXTT1=
EXTT2=
EXTT3=
EXTT4=
EXTT5=
EXTT6=
EXTT7=
PLAYORDER=
